<svg id="Layer_1" data-name="Layer 1" xmlns="http://www.w3.org/2000/svg" viewBox="0 0 434 127"><path d="M72.76,5.37h-52C7,5.37,0,12.08,0,25.38V96.52c0,1.74.94,2.82,3,2.82H18.66c1.88,0,3.09-1.08,3.09-2.82v-2.7c0-6.59,2.77-10.18,9.68-10.87H72.76c15.16,0,22-6.58,22-20.94V26.31C94.77,12,87.92,5.37,72.76,5.37ZM73.05,56c0,7.79-1.77,9.39-11,9.39H40c-9.26,0-15.17,3.09-18.26,9.13V30.61c0-6,1.48-7.65,8.86-7.65H62c9.27,0,11,1.61,11,9.39Z" fill="#8257e5"/><path d="M144.57,44.7c-11.94,0-17,6-17,16.25V96.79c0,1.61-.81,2.55-2.68,2.55H110.61c-1.88,0-2.82-.94-2.82-2.55V31.28c0-1.61.94-2.56,2.82-2.56h11.94a2.38,2.38,0,0,1,2.69,2.56V41.85c2.28-8.72,8.86-13.16,20.54-13.16h4.84a2.37,2.37,0,0,1,2.67,2.56v10.9c0,1.75-.93,2.55-2.67,2.55Z" fill="#8257e5"/><path d="M237.19,80.14c0,13.29-5.9,19.2-20,19.2H182.29c-14,0-20-5.91-20-19.2V47.94c0-13.29,6-19.2,20-19.2H217.2c14.09,0,20,5.91,20,19.2ZM217.46,53c0-7-1.34-8.33-9.66-8.33h-16C183.37,44.7,182,46,182,53V75c0,7,1.35,8.33,9.8,8.33h16c8.32,0,9.66-1.35,9.66-8.33Z" fill="#8257e5"/><path d="M257.06,44.7h-6.72c-1.75,0-2.69-.8-2.69-2.55V31.28a2.38,2.38,0,0,1,2.69-2.56h6.71V20c0-13.29,7-20,20.81-20h16.52c1.88,0,2.68.94,2.68,2.55V13.42c0,1.75-.8,2.55-2.68,2.55h-8.73c-7.38,0-8.86,1.61-8.86,7.66v5.09h17.59c1.88,0,2.68,1,2.68,2.56V42.15c0,1.75-.8,2.55-2.68,2.55H276.79V96.79c0,1.61-.93,2.55-2.81,2.55H259.75c-1.88,0-2.69-.94-2.69-2.55Z" fill="#8257e5"/><path d="M311.83,44.7h-6.7c-1.74,0-2.68-.8-2.68-2.55V31.28a2.38,2.38,0,0,1,2.68-2.56h6.72V20c0-13.29,7-20,20.78-20h16.52c1.88,0,2.68.94,2.68,2.55V13.42c0,1.75-.8,2.55-2.68,2.55h-8.73c-7.38,0-8.86,1.61-8.86,7.66v5.09h17.59c1.88,0,2.68,1,2.68,2.56V42.15c0,1.75-.8,2.55-2.68,2.55H331.56V96.79c0,1.61-.94,2.55-2.82,2.55H314.51c-1.88,0-2.68-.94-2.68-2.55Z" fill="#8257e5"/><path d="M411.83,126.72H382.57c-13.15,0-18.79-5.1-18.79-17.72v-1.34a2.38,2.38,0,0,1,.12-1.06,2.29,2.29,0,0,1,.58-.91,2.42,2.42,0,0,1,.91-.57,2.29,2.29,0,0,1,1.07-.11h13.69c1.88,0,2.82.94,2.82,2.68v.67c0,2.69,1.48,3.76,4.43,3.76h16.92c8.05,0,10.07-2,10.07-8.86V82.09c-3.09,6-9,9.13-18.27,9.13H382.43c-14,0-20.14-5.91-20.14-19.2V31.28a2.44,2.44,0,0,1,.75-1.89,2.46,2.46,0,0,1,.9-.55,2.56,2.56,0,0,1,1-.12h14.37A2.39,2.39,0,0,1,382,31.28V67c0,7,1.47,8.33,9.8,8.33H402c8.86,0,12.35-3.63,12.35-11v-33a2.38,2.38,0,0,1,2.69-2.56h14.37a2.31,2.31,0,0,1,1,.13,2.39,2.39,0,0,1,.87.55,2.24,2.24,0,0,1,.54.87,2.31,2.31,0,0,1,.13,1v74.1C434,119.46,426.46,126.72,411.83,126.72Z" fill="#8257e5"/></svg>